<?xml version="1.0" encoding="UTF-8"?>
<svg id="Layer_1" data-name="Layer 1" xmlns="http://www.w3.org/2000/svg" viewBox="0 0 1920 1080">
  <defs>
    <style>
      .cls-1 {
        fill: #cd2127;
      }
    </style>
  </defs>
  <path class="cls-1" d="m387.77,366.37h80.86c28.11,0,48.62,6.54,61.52,19.6,12.9,13.07,19.35,33.16,19.35,60.28v21.33c0,36.05-11.91,58.87-35.72,68.46v.99c13.22,3.97,22.57,12.08,28.03,24.31,5.46,12.24,8.19,28.61,8.19,49.11v61.02c0,9.92.33,17.95.99,24.06.66,6.12,2.31,12.15,4.96,18.11h-55.56c-1.98-5.62-3.31-10.91-3.97-15.88-.67-4.96-.99-13.89-.99-26.79v-63.5c0-15.88-2.57-26.95-7.69-33.24-5.13-6.28-13.98-9.43-26.54-9.43h-18.85v148.83h-54.57v-347.27Zm74.41,148.83c10.91,0,19.1-2.81,24.56-8.43,5.46-5.62,8.19-15.04,8.19-28.28v-26.79c0-12.56-2.23-21.66-6.7-27.29-4.46-5.62-11.5-8.43-21.08-8.43h-24.8v99.22h19.84Z"/>
  <rect class="cls-1" x="194.29" y="507.72" width="54.19" height="49.53"/>
  <rect class="cls-1" x="252.17" y="507.72" width="132.6" height="49.53"/>
  <path class="cls-1" d="m545.68,507.72h34.35v49.53h-36.89c-5.01-9.66-12.63-16.7-22.7-21.01,11.5-6.08,19.93-15.61,25.24-28.52Z"/>
  <rect class="cls-1" x="583.72" y="507.72" width="54.57" height="49.53"/>
  <rect class="cls-1" x="641.98" y="507.72" width="488.98" height="49.53"/>
  <path class="cls-1" d="m355.03,483.44v-36.71c0-27.11-6.87-48.12-20.59-63-13.73-14.88-33.66-22.32-59.78-22.32s-46.06,7.44-59.78,22.32c-13.73,14.88-20.59,35.89-20.59,63v186.53c0,27.13,6.86,48.13,20.59,63.01,13.72,14.88,33.65,22.32,59.78,22.32s46.05-7.44,59.78-22.32c13.72-14.88,20.59-35.88,20.59-63.01v-49.11h-51.6v53.08c0,21.17-9.1,31.75-27.28,31.75s-27.29-10.58-27.29-31.75v-193.97c0-21.49,9.1-32.25,27.29-32.25s27.28,10.76,27.28,32.25v40.18h51.6Z"/>
  <path class="cls-1" d="m749.42,504.03v-55.31c0-27.78-7.12-49.28-21.33-64.49-14.23-15.21-34.73-22.82-61.52-22.82s-47.3,7.61-61.51,22.82c-14.23,15.21-21.34,36.71-21.34,64.49v182.56c0,27.78,7.11,49.28,21.34,64.49,14.21,15.22,34.72,22.82,61.51,22.82s47.29-7.6,61.52-22.82c14.21-15.21,21.33-36.71,21.33-64.49v-70.34h-54.57v73.81c0,22.82-9.43,34.23-28.28,34.23s-28.28-11.41-28.28-34.23v-189.5c0-22.82,9.43-34.24,28.28-34.24s28.28,11.42,28.28,34.24v58.78h54.57Z"/>
  <path class="cls-1" d="m792.23,504.03h70.79c-9.27-9.18-16.13-17.37-20.59-24.55-6.78-10.92-10.17-22.65-10.17-35.23,0-22.15,9.1-33.24,27.29-33.24,8.93,0,15.7,2.73,20.34,8.19,4.63,5.46,6.94,14.14,6.94,26.05v17.85h51.6v-14.38c0-28.11-6.7-49.69-20.09-64.74-13.4-15.05-33.17-22.57-59.29-22.57s-46.63,7.52-60.52,22.57c-13.89,15.05-20.84,36.3-20.84,63.75,0,20.17,4.47,38.28,13.4,54.32.37.66.74,1.32,1.14,1.98Zm134.29,69.21c-2.12-3.99-4.67-8.09-7.65-12.3h-74.95c14.79,13.39,25.12,25.01,31.01,34.87,6.61,11.08,9.92,23.9,9.92,38.45,0,12.24-2.4,21.08-7.19,26.54-4.8,5.46-11.83,8.18-21.09,8.18-18.85,0-28.27-11.24-28.27-33.73v-23.81h-51.6v19.84c0,28.11,6.78,49.69,20.34,64.74,13.56,15.05,33.56,22.57,60.03,22.57s47.2-7.6,61.27-22.82c14.05-15.21,21.08-37.03,21.08-65.48,0-21.83-4.3-40.85-12.9-57.05Z"/>
  <path class="cls-1" d="m976.77,504.03h70.79c-9.26-9.19-16.12-17.37-20.58-24.55-6.79-10.92-10.17-22.65-10.17-35.23,0-22.15,9.09-33.24,27.28-33.24,8.93,0,15.71,2.73,20.34,8.19,4.63,5.46,6.95,14.14,6.95,26.05v17.85h51.59v-14.38c0-28.11-6.7-49.69-20.09-64.74-13.4-15.05-33.16-22.57-59.28-22.57s-46.64,7.52-60.53,22.57c-13.89,15.05-20.83,36.3-20.83,63.75,0,20.17,4.46,38.28,13.39,54.32.37.66.74,1.32,1.14,1.98Zm134.29,69.21c-2.12-3.99-4.67-8.09-7.65-12.3h-74.95c14.79,13.39,25.12,25.01,31.01,34.87,6.61,11.08,9.92,23.9,9.92,38.45,0,12.24-2.4,21.08-7.19,26.54-4.8,5.46-11.83,8.18-21.08,8.18-18.86,0-28.28-11.24-28.28-33.73v-23.81h-51.6v19.84c0,28.11,6.78,49.69,20.34,64.74,13.56,15.05,33.57,22.57,60.03,22.57s47.21-7.6,61.27-22.82c14.05-15.21,21.08-37.03,21.08-65.48,0-21.83-4.3-40.85-12.9-57.05Z"/>
  <path class="cls-1" d="m1283.21,529.09v-1c11.9-4.96,20.75-13.06,26.54-24.31,5.78-11.24,8.68-25.79,8.68-43.65v-13.89c0-27.12-6.45-47.21-19.35-60.28-12.9-13.06-33.41-19.59-61.51-19.59h-82.36v347.26h85.83c27.11,0,47.7-7.02,61.76-21.08,14.06-14.06,21.09-34.48,21.09-61.27v-29.77c0-39.02-13.57-63.16-40.68-72.42Zm-73.43-113.11h26.3c9.59,0,16.62,2.81,21.08,8.43,4.47,5.63,6.7,14.72,6.7,27.28v19.35c0,13.23-2.73,22.66-8.19,28.28-5.45,5.63-13.64,8.43-24.55,8.43h-21.34v-91.77Zm59.54,213.81c0,12.57-2.32,21.42-6.95,26.54-4.64,5.13-11.74,7.69-21.33,7.69h-31.26v-106.66h24.31c12.57,0,21.58,3.06,27.04,9.18,5.46,6.12,8.19,17.12,8.19,32.99v30.26Z"/>
  <path class="cls-1" d="m1463.78,366.37v268.88c0,11.91-2.4,20.51-7.19,25.8-4.8,5.29-11.66,7.93-20.59,7.93s-15.8-2.64-20.59-7.93c-4.8-5.29-7.19-13.89-7.19-25.8v-268.88h-54.57v264.91c0,28.11,6.94,49.69,20.83,64.74,13.89,15.05,34.06,22.57,60.53,22.57s46.63-7.52,60.52-22.57c13.89-15.05,20.84-36.63,20.84-64.74v-264.91h-52.59Z"/>
  <path class="cls-1" d="m1672.63,366.37l-37.21,127.49h-.99l-37.2-127.49h-58.05l65.98,199.43v147.83h54.57v-147.83l65.98-199.43h-53.08Z"/>
  <rect class="cls-1" x="1155.21" y="504.03" width="36.64" height="56.91"/>
</svg>