<?xml version="1.0" encoding="UTF-8"?>
<svg id="Layer_1" data-name="Layer 1" xmlns="http://www.w3.org/2000/svg" viewBox="0 0 1920 1080">
  <defs>
    <style>
      .cls-1 {
        fill: #fff;
      }

      .cls-2 {
        fill: #cd2127;
      }
    </style>
  </defs>
  <path class="cls-1" d="m387.76,360.13h80.86c28.11,0,48.62,6.54,61.52,19.6,12.9,13.07,19.35,33.16,19.35,60.28v21.33c0,36.05-11.91,58.87-35.72,68.46v.99c13.22,3.97,22.57,12.08,28.03,24.31,5.46,12.24,8.19,28.61,8.19,49.11v61.02c0,9.92.33,17.95.99,24.06.66,6.12,2.31,12.15,4.96,18.11h-55.56c-1.98-5.62-3.31-10.91-3.97-15.88-.67-4.96-.99-13.89-.99-26.79v-63.5c0-15.88-2.57-26.95-7.69-33.24-5.13-6.28-13.98-9.43-26.54-9.43h-18.85v148.83h-54.57v-347.27Zm74.41,148.83c10.91,0,19.1-2.81,24.56-8.43,5.46-5.62,8.19-15.04,8.19-28.28v-26.79c0-12.56-2.23-21.66-6.7-27.29-4.46-5.62-11.5-8.43-21.08-8.43h-24.8v99.22h19.84Z"/>
  <rect class="cls-2" x="194.29" y="509" width="468.33" height="49.53"/>
  <path class="cls-1" d="m214.88,697.55c-13.73-14.88-20.59-35.88-20.59-63v-186.53c0-27.11,6.86-48.12,20.59-63,13.72-14.88,33.65-22.32,59.78-22.32s46.05,7.44,59.78,22.32c13.72,14.88,20.59,35.89,20.59,63v36.71h-51.59v-40.18c0-21.49-9.1-32.25-27.29-32.25s-27.29,10.75-27.29,32.25v193.97c0,21.17,9.09,31.75,27.29,31.75s27.29-10.58,27.29-31.75v-53.08h51.59v49.11c0,27.12-6.87,48.12-20.59,63-13.73,14.88-33.66,22.32-59.78,22.32s-46.06-7.44-59.78-22.32Z"/>
  <path class="cls-1" d="m605.05,697.05c-14.22-15.21-21.33-36.71-21.33-64.49v-182.56c0-27.78,7.11-49.28,21.33-64.49,14.22-15.21,34.73-22.82,61.52-22.82s47.29,7.61,61.52,22.82c14.22,15.22,21.33,36.71,21.33,64.49v182.56c0,27.78-7.12,49.29-21.33,64.49-14.22,15.22-34.73,22.82-61.52,22.82s-47.3-7.6-61.52-22.82Zm89.79-61.02v-189.51c0-22.82-9.43-34.23-28.28-34.23s-28.28,11.41-28.28,34.23v189.51c0,22.82,9.43,34.23,28.28,34.23s28.28-11.41,28.28-34.23Z"/>
  <path class="cls-1" d="m797.04,697.3c-13.57-15.04-20.34-36.62-20.34-64.74v-19.84h51.59v23.81c0,22.5,9.43,33.73,28.28,33.73,9.25,0,16.29-2.73,21.08-8.19,4.79-5.46,7.19-14.3,7.19-26.54,0-14.55-3.31-27.36-9.92-38.45-6.62-11.08-18.85-24.38-36.71-39.94-22.5-19.84-38.2-37.78-47.13-53.83-8.93-16.04-13.39-34.14-13.39-54.32,0-27.45,6.95-48.69,20.84-63.75,13.89-15.04,34.06-22.57,60.52-22.57s45.89,7.53,59.28,22.57c13.39,15.05,20.09,36.63,20.09,64.74v14.39h-51.59v-17.86c0-11.91-2.32-20.59-6.95-26.04-4.64-5.46-11.41-8.19-20.34-8.19-18.19,0-27.29,11.08-27.29,33.24,0,12.57,3.39,24.31,10.17,35.22,6.77,10.91,19.1,24.15,36.96,39.69,22.82,19.84,38.52,37.88,47.13,54.07,8.6,16.21,12.9,35.22,12.9,57.05,0,28.45-7.03,50.28-21.08,65.48-14.06,15.22-34.48,22.82-61.27,22.82s-46.47-7.52-60.03-22.57Z"/>
  <path class="cls-1" d="m981.58,697.3c-13.57-15.04-20.34-36.62-20.34-64.74v-19.84h51.59v23.81c0,22.5,9.43,33.73,28.28,33.73,9.25,0,16.29-2.73,21.08-8.19,4.79-5.46,7.19-14.3,7.19-26.54,0-14.55-3.31-27.36-9.92-38.45-6.62-11.08-18.85-24.38-36.71-39.94-22.5-19.84-38.2-37.78-47.13-53.83-8.93-16.04-13.39-34.14-13.39-54.32,0-27.45,6.95-48.69,20.84-63.75,13.89-15.04,34.06-22.57,60.52-22.57s45.89,7.53,59.28,22.57c13.39,15.05,20.09,36.63,20.09,64.74v14.39h-51.59v-17.86c0-11.91-2.32-20.59-6.95-26.04-4.64-5.46-11.41-8.19-20.34-8.19-18.19,0-27.29,11.08-27.29,33.24,0,12.57,3.39,24.31,10.17,35.22,6.77,10.91,19.1,24.15,36.96,39.69,22.82,19.84,38.52,37.88,47.13,54.07,8.6,16.21,12.9,35.22,12.9,57.05,0,28.45-7.03,50.28-21.08,65.48-14.06,15.22-34.48,22.82-61.27,22.82s-46.47-7.52-60.03-22.57Z"/>
  <path class="cls-1" d="m1155.21,367.64h82.35c28.11,0,48.62,6.54,61.52,19.6,12.9,13.07,19.35,33.16,19.35,60.28v13.89c0,17.86-2.9,32.42-8.68,43.66-5.79,11.25-14.63,19.35-26.54,24.31v.99c27.11,9.26,40.68,33.41,40.68,72.43v29.77c0,26.79-7.03,47.21-21.08,61.27-14.06,14.06-34.65,21.08-61.76,21.08h-85.82v-347.27Zm75.9,141.39c10.91,0,19.1-2.81,24.56-8.43,5.46-5.62,8.19-15.04,8.19-28.28v-19.35c0-12.56-2.23-21.66-6.7-27.29-4.46-5.62-11.5-8.43-21.08-8.43h-26.29v91.78h21.33Zm9.92,156.27c9.59,0,16.7-2.56,21.33-7.69,4.63-5.12,6.95-13.97,6.95-26.54v-30.26c0-15.88-2.73-26.87-8.19-32.99-5.46-6.12-14.47-9.18-27.04-9.18h-24.31v106.66h31.25Z"/>
  <path class="cls-1" d="m1374.48,697.3c-13.89-15.04-20.84-36.62-20.84-64.74v-264.91h54.57v268.88c0,11.91,2.4,20.51,7.19,25.8,4.79,5.29,11.66,7.94,20.59,7.94s15.79-2.64,20.59-7.94c4.79-5.29,7.19-13.89,7.19-25.8v-268.88h52.59v264.91c0,28.12-6.95,49.7-20.84,64.74-13.89,15.05-34.07,22.57-60.52,22.57s-46.63-7.52-60.52-22.57Z"/>
  <path class="cls-1" d="m1605.16,567.07l-65.98-199.43h58.04l37.21,127.5h.99l37.21-127.5h53.08l-65.98,199.43v147.84h-54.57v-147.84Z"/>
  <rect class="cls-2" x="662.62" y="509" width="492.54" height="49.53"/>
</svg>